<svg width="98" height="51" viewBox="0 0 98 51" fill="none" xmlns="http://www.w3.org/2000/svg">
<path d="M25.0786 25.0765L25.2772 25.0345H41.7954L48.0023 31.2414H31.2437L25.0786 25.0765Z" fill="#1E293B"/>
<path d="M19.7609 25.0344L3.0022 25.0345L9.20908 31.2414H19.7607L19.7609 25.0344Z" fill="#1E293B"/>
<path d="M53.7702 7.20471H56.3443V15.2032H60.7654V17.3701H53.7702V7.20471Z" fill="#1E293B"/>
<path d="M65.4388 17.5882C64.5759 17.5882 63.82 17.4331 63.1699 17.1228C62.5204 16.8029 62.0163 16.3667 61.6575 15.814C61.3084 15.2517 61.1339 14.607 61.1339 13.8798C61.1339 13.1527 61.3084 12.5128 61.6575 11.9602C62.0163 11.3979 62.5204 10.9616 63.1699 10.6514C63.82 10.3314 64.5759 10.1714 65.4388 10.1714C66.3017 10.1714 67.0582 10.3314 67.7077 10.6514C68.3571 10.9616 68.8564 11.3979 69.2054 11.9602C69.5642 12.5128 69.7436 13.1527 69.7436 13.8798C69.7436 14.607 69.5642 15.2517 69.2054 15.814C68.8564 16.3667 68.3571 16.8029 67.7077 17.1228C67.0582 17.4331 66.3017 17.5882 65.4388 17.5882ZM65.4388 15.5959C65.9526 15.5959 66.3601 15.4456 66.6605 15.1451C66.9706 14.8348 67.1257 14.4131 67.1257 13.8798C67.1257 13.3466 66.9706 12.9297 66.6605 12.6291C66.3601 12.3189 65.9526 12.1638 65.4388 12.1638C64.9249 12.1638 64.5133 12.3189 64.2025 12.6291C63.9021 12.9297 63.7519 13.3466 63.7519 13.8798C63.7519 14.4131 63.9021 14.8348 64.2025 15.1451C64.5133 15.4456 64.9249 15.5959 65.4388 15.5959Z" fill="#1E293B"/>
<path d="M74.5512 20.7149C74.086 20.7149 73.6159 20.6713 73.1403 20.584C72.6751 20.4968 72.2732 20.3804 71.9339 20.235V18.4608C72.6995 18.7904 73.5721 18.9553 74.5512 18.9553C75.259 18.9553 75.768 18.8098 76.0781 18.5189C76.398 18.2281 76.5579 17.8016 76.5579 17.2392V16.8174C76.277 17.0598 75.928 17.2489 75.5114 17.3846C75.104 17.5204 74.6673 17.5882 74.2021 17.5882C73.4657 17.5882 72.8156 17.4331 72.2538 17.1228C71.6912 16.8127 71.2504 16.3763 70.9298 15.814C70.6197 15.2517 70.4647 14.607 70.4647 13.8798C70.4647 13.143 70.6197 12.4934 70.9298 11.9311C71.2407 11.3688 71.6766 10.9374 72.2392 10.6368C72.801 10.3266 73.4463 10.1714 74.1729 10.1714C75.1721 10.1714 75.9961 10.4768 76.6455 11.0876V10.3896H79.1175V16.8902C79.1175 18.1021 78.7448 19.0425 77.998 19.7115C77.2609 20.3804 76.1122 20.7149 74.5512 20.7149ZM74.8418 15.6104C75.2396 15.6104 75.5935 15.5086 75.9036 15.305C76.2137 15.1014 76.4321 14.83 76.5579 14.4906V13.2691C76.4223 12.9297 76.1991 12.6631 75.889 12.4692C75.5789 12.2656 75.2298 12.1638 74.8418 12.1638C74.3189 12.1638 73.8969 12.3189 73.577 12.6291C73.2571 12.9297 73.0972 13.3418 73.0972 13.8653C73.0972 14.3985 73.2571 14.8251 73.577 15.1451C73.8969 15.4553 74.3189 15.6104 74.8418 15.6104Z" fill="#1E293B"/>
<path d="M84.0717 17.5882C83.2088 17.5882 82.4523 17.4331 81.8028 17.1228C81.1534 16.8029 80.6493 16.3667 80.2905 15.814C79.9414 15.2517 79.7669 14.607 79.7669 13.8798C79.7669 13.1527 79.9414 12.5128 80.2905 11.9602C80.6493 11.3979 81.1534 10.9616 81.8028 10.6514C82.4523 10.3314 83.2088 10.1714 84.0717 10.1714C84.9346 10.1714 85.6905 10.3314 86.3406 10.6514C86.9901 10.9616 87.4893 11.3979 87.8384 11.9602C88.1972 12.5128 88.3766 13.1527 88.3766 13.8798C88.3766 14.607 88.1972 15.2517 87.8384 15.814C87.4893 16.3667 86.9901 16.8029 86.3406 17.1228C85.6905 17.4331 84.9346 17.5882 84.0717 17.5882ZM84.0717 15.5959C84.5856 15.5959 84.9924 15.4456 85.2934 15.1451C85.6036 14.8348 85.7586 14.4131 85.7586 13.8798C85.7586 13.3466 85.6036 12.9297 85.2934 12.6291C84.9924 12.3189 84.5856 12.1638 84.0717 12.1638C83.5579 12.1638 83.1455 12.3189 82.8354 12.6291C82.535 12.9297 82.3848 13.3466 82.3848 13.8798C82.3848 14.4131 82.535 14.8348 82.8354 15.1451C83.1455 15.4456 83.5579 15.5959 84.0717 15.5959Z" fill="#1E293B"/>
<path d="M53.7702 21.1115H56.3443V31.2769H53.7702V21.1115Z" fill="#1E293B"/>
<path d="M57.6474 24.2964H60.1194V24.9944C60.7689 24.3837 61.5936 24.0783 62.5921 24.0783C63.3187 24.0783 63.964 24.2334 64.5258 24.5437C65.0883 24.8442 65.5243 25.2756 65.8351 25.8379C66.1453 26.3905 66.3003 27.0353 66.3003 27.7721C66.3003 28.4992 66.1453 29.1488 65.8351 29.7208C65.5243 30.2831 65.0883 30.7195 64.5258 31.0296C63.9737 31.3399 63.3284 31.495 62.5921 31.495C62.1262 31.495 61.6805 31.4223 61.2542 31.2769C60.837 31.1412 60.488 30.9521 60.2071 30.7097V34.4618H57.6474V24.2964ZM61.9232 29.5027C62.4467 29.5027 62.8681 29.3476 63.188 29.0373C63.5078 28.7271 63.6678 28.3053 63.6678 27.7721C63.6678 27.2389 63.5078 26.822 63.188 26.5214C62.8681 26.2112 62.4467 26.0561 61.9232 26.0561C61.5352 26.0561 61.1861 26.1579 60.876 26.3615C60.5658 26.5553 60.3426 26.822 60.2071 27.1613V28.3974C60.3426 28.7368 60.5658 29.0082 60.876 29.2118C61.1861 29.4058 61.5352 29.5027 61.9232 29.5027Z" fill="#1E293B"/>
<path d="M70.1163 31.495C69.5537 31.495 68.9669 31.4368 68.3564 31.3205C67.7459 31.2139 67.2605 31.0588 66.9024 30.8552V28.9792C67.2994 29.2118 67.7744 29.4058 68.3272 29.5609C68.8897 29.7063 69.4035 29.779 69.8687 29.779C70.2081 29.779 70.4556 29.7547 70.6107 29.7063C70.7657 29.6578 70.8429 29.5609 70.8429 29.4154C70.8429 29.2991 70.7901 29.207 70.683 29.1392C70.5863 29.0616 70.4021 28.984 70.1309 28.9064C69.8687 28.8192 69.5635 28.7271 69.2144 28.6301C68.6227 28.4556 68.1575 28.2762 67.8182 28.092C67.4788 27.9078 67.2271 27.6752 67.0623 27.394C66.8975 27.1129 66.8148 26.7589 66.8148 26.3323C66.8148 25.5762 67.1103 25.0138 67.702 24.6455C68.3028 24.2673 69.1226 24.0783 70.1594 24.0783C70.6635 24.0783 71.192 24.1316 71.7448 24.2382C72.3073 24.3449 72.7287 24.4855 73.0103 24.66V26.5069C72.7189 26.313 72.3316 26.153 71.847 26.027C71.3714 25.901 70.9256 25.8379 70.5084 25.8379C70.1789 25.8379 69.9223 25.8718 69.738 25.9397C69.5537 25.9979 69.462 26.1046 69.462 26.2597C69.462 26.4051 69.5537 26.5166 69.738 26.5941C69.9223 26.6717 70.2519 26.7687 70.7268 26.885C71.0369 26.9625 71.1683 26.9965 71.1196 26.9868C71.7399 27.1516 72.2197 27.3358 72.559 27.5394C72.8983 27.7431 73.1361 27.9854 73.2717 28.2666C73.4171 28.538 73.4901 28.887 73.4901 29.3136C73.4901 29.9826 73.1994 30.5159 72.6174 30.9133C72.0451 31.3011 71.2114 31.495 70.1163 31.495Z" fill="#1E293B"/>
<path d="M77.3117 31.495C76.3521 31.495 75.6297 31.2284 75.145 30.6952C74.6701 30.1619 74.4323 29.4591 74.4323 28.5865V24.2964H76.9919V28.2956C76.9919 29.1003 77.3555 29.5027 78.0822 29.5027C78.4124 29.5027 78.7128 29.4251 78.984 29.27C79.2559 29.1149 79.4784 28.887 79.6529 28.5865V24.2964H82.2125V31.2769H79.7405V30.5206C79.4401 30.8406 79.0765 31.083 78.6495 31.2478C78.2233 31.4126 77.7769 31.495 77.3117 31.495Z" fill="#1E293B"/>
<path d="M83.5232 24.2964H85.8936V25.0526C86.1842 24.7424 86.5187 24.5049 86.897 24.34C87.2752 24.1655 87.6778 24.0783 88.1041 24.0783C88.6276 24.0783 89.0449 24.1558 89.355 24.3109C89.6748 24.4661 89.9314 24.6987 90.1254 25.009C90.4161 24.7181 90.77 24.4903 91.1872 24.3255C91.6037 24.1607 92.0258 24.0783 92.452 24.0783C93.3734 24.0783 94.0277 24.3158 94.4157 24.7908C94.8037 25.2562 94.9977 25.93 94.9977 26.8123V31.2769H92.5542V27.1759C92.5542 26.7881 92.4812 26.5069 92.3359 26.3323C92.1906 26.1579 91.9479 26.0706 91.6086 26.0706C91.1726 26.0706 90.8187 26.2258 90.5475 26.5359C90.5572 26.7008 90.5621 26.9529 90.5621 27.2922V31.2769H88.1187V27.0741C88.1187 26.7153 88.0554 26.4584 87.9295 26.3033C87.8037 26.1482 87.5805 26.0706 87.2606 26.0706C86.7662 26.0706 86.3393 26.3469 85.9812 26.8995V31.2769H83.5232V24.2964Z" fill="#1E293B"/>
<path d="M25.2774 25.0345L25.0787 25.0766L31.2435 31.2414V48H25.9676L19.7607 41.7931H25.0366V25.0344H19.7607V19.7587H25.0366V3L31.2435 9.20689V19.7586L25.0366 19.7587V25.0344L25.2774 25.0345Z" fill="#475569"/>
<path d="M41.7955 25.0345L48.0024 31.2414V25.9655L41.7955 19.7586V25.0345Z" fill="#475569"/>
<path d="M54.1339 36.0485H57.9004C58.9667 36.0485 59.7955 36.3006 60.3873 36.8048C60.988 37.3089 61.2891 38.0554 61.2891 39.0443C61.2891 40.0429 60.9929 40.7895 60.4019 41.284C59.8101 41.7784 58.9764 42.0256 57.9004 42.0256H55.2682V46.2139H54.1339V36.0485ZM57.8132 41.0658C58.5404 41.0658 59.1127 40.9204 59.5292 40.6295C59.9464 40.329 60.1543 39.8006 60.1543 39.0443C60.1543 38.2784 59.9464 37.75 59.5292 37.4592C59.1127 37.1586 58.5404 37.0084 57.8132 37.0084H55.2682V41.0658H57.8132Z" fill="#475569"/>
<path d="M62.7403 35.4668H63.8598V46.2139H62.7403V35.4668Z" fill="#475569"/>
<path d="M68.7146 46.4321C67.7836 46.4321 67.066 46.18 66.5618 45.6758C66.0674 45.1717 65.8206 44.4979 65.8206 43.6544V39.2334H66.9401V43.7126C66.9401 44.9342 67.5749 45.545 68.8453 45.545C69.3787 45.545 69.8438 45.4286 70.2416 45.196C70.6484 44.9632 71.012 44.5948 71.3319 44.0907V39.2334H72.4521V46.2139H71.3611V45.1668C70.7311 46.0103 69.8487 46.4321 68.7146 46.4321Z" fill="#475569"/>
<path d="M76.914 46.4321C76.4579 46.4321 75.9684 46.3642 75.4448 46.2285C74.9212 46.1024 74.5144 45.9425 74.2231 45.7485V44.8033C74.5916 45.0263 75.0137 45.2056 75.4886 45.3413C75.9732 45.4771 76.4384 45.5449 76.8848 45.5449C77.4856 45.5449 77.9174 45.4625 78.1789 45.2977C78.4507 45.1232 78.5863 44.8663 78.5863 44.527C78.5863 44.2652 78.5279 44.0616 78.4118 43.9162C78.295 43.761 78.1017 43.6253 77.8298 43.509C77.5586 43.3926 77.1366 43.2569 76.565 43.1018C76.0025 42.9467 75.5519 42.7867 75.2125 42.6219C74.883 42.4473 74.6305 42.2292 74.456 41.9674C74.2815 41.7057 74.1946 41.3712 74.1946 40.964C74.1946 40.3338 74.4463 39.8539 74.9504 39.5243C75.4643 39.1849 76.1429 39.0153 76.9864 39.0153C77.4418 39.0153 77.8687 39.0589 78.2665 39.1461C78.6733 39.2237 79.0126 39.3352 79.2845 39.4807V40.4259C79.0028 40.2708 78.6635 40.1496 78.2665 40.0623C77.8687 39.9654 77.4564 39.9169 77.0302 39.9169C76.4676 39.9169 76.0414 39.9993 75.75 40.1641C75.4594 40.329 75.3141 40.5956 75.3141 40.964C75.3141 41.2161 75.3627 41.41 75.4594 41.5457C75.5665 41.6814 75.7549 41.8075 76.0268 41.9238C76.3077 42.0305 76.7541 42.1662 77.3646 42.331C78.2373 42.5734 78.8429 42.8594 79.1822 43.1891C79.5313 43.509 79.7058 43.955 79.7058 44.527C79.7058 45.1183 79.4736 45.5837 79.0077 45.9231C78.5523 46.2624 77.8541 46.4321 76.914 46.4321Z" fill="#475569"/>
</svg>
